<svg width="88" height="26" viewBox="0 0 88 26" fill="none" xmlns="http://www.w3.org/2000/svg">
<g opacity="0.3">
<path d="M0 0H38.7917L49 13L38.7917 26H0V0Z" fill="white"/>
<path fill-rule="evenodd" clip-rule="evenodd" d="M17.3146 11.5272C17.374 11.5759 17.4338 11.6249 17.4944 11.6741C17.5346 11.6493 17.5594 11.6155 17.5828 11.5836C17.5883 11.5762 17.5936 11.5689 17.5991 11.5618C17.8113 11.3068 18.0221 11.0505 18.2329 10.7942L18.2331 10.7939C18.6561 10.2825 19.0779 9.77103 19.4996 9.2582C19.5836 9.15563 19.5809 9.10851 19.4844 9.02534C19.4086 8.95881 19.3314 8.89367 19.2529 8.82853C18.5831 8.27411 17.8472 7.84167 17.0134 7.5908C16.4566 7.42447 15.8875 7.33299 15.3087 7.2928C14.5534 7.24151 13.8051 7.26646 13.0637 7.43972C10.4673 8.04403 8.52961 10.2173 8.30222 13.0033C8.24158 13.7545 8.29946 14.4988 8.48964 15.2292C8.92238 16.8828 9.86227 18.1496 11.3548 18.984C12.1679 19.4386 13.0485 19.6784 13.9746 19.7533C14.7588 19.817 15.5347 19.7685 16.3009 19.5939C17.5964 19.2987 18.7416 18.7027 19.76 17.8502C19.8413 17.7823 19.8744 17.7144 19.8744 17.6063C19.8711 16.2802 19.8713 14.9532 19.8716 13.6268C19.8716 13.2951 19.8717 12.9634 19.8717 12.6318C19.8717 12.6146 19.8705 12.5971 19.8693 12.5796C19.8666 12.5409 19.864 12.5022 19.8744 12.4669C19.8865 12.4258 19.8646 12.4023 19.8433 12.3794C19.8257 12.3605 19.8085 12.342 19.811 12.3144C19.8165 12.2687 19.7862 12.2617 19.7504 12.2617H19.6539H14.2806C14.2701 12.2617 14.2594 12.262 14.2487 12.2624C14.2271 12.263 14.2053 12.2636 14.1841 12.2617C14.129 12.2562 14.1111 12.2839 14.1152 12.3352C14.117 12.3565 14.1164 12.3784 14.1158 12.4001C14.1155 12.4109 14.1152 12.4216 14.1152 12.4322C14.1152 12.7233 14.115 13.0144 14.1149 13.3054C14.1146 13.8876 14.1143 14.4697 14.1152 15.0518C14.1152 15.1482 14.1082 15.1907 14.1261 15.2092C14.1437 15.2274 14.1855 15.2223 14.2819 15.2223H16.4456C16.5408 15.2223 16.582 15.2173 16.5994 15.2352C16.6174 15.2537 16.6103 15.2965 16.611 15.3942C16.6119 15.5207 16.6116 15.6467 16.6113 15.7728C16.6112 15.8359 16.611 15.8991 16.611 15.9625V15.9671C16.611 16.2272 16.611 16.2292 16.3781 16.3422C15.6959 16.6721 14.9751 16.7664 14.231 16.6721C13.4041 16.5682 12.7426 16.1731 12.2575 15.4898C11.9419 15.0449 11.7696 14.5432 11.7048 14.0026C11.6235 13.3124 11.7062 12.6484 12.0163 12.022C12.3898 11.2693 12.9548 10.7288 13.7665 10.4807C14.3357 10.306 14.9118 10.3518 15.4823 10.4779C15.9991 10.5916 16.4498 10.8466 16.8646 11.1668C17.0166 11.283 17.1644 11.4041 17.3146 11.5272ZM32.6219 9.01286C31.3471 7.84027 29.8284 7.2817 28.2587 7.26922C27.5338 7.27061 26.9922 7.33021 26.4175 7.48129C24.75 7.92066 23.4449 8.86317 22.5781 10.3684C21.6878 11.9124 21.5073 13.5688 22.0048 15.2722C22.5615 17.1766 23.7481 18.5626 25.5838 19.3347C26.9936 19.9265 28.4544 20.0055 29.9277 19.6146C31.6393 19.1614 32.9513 18.1593 33.8112 16.5959C34.5361 15.2777 34.7304 13.864 34.4603 12.3879C34.2178 11.0614 33.6114 9.92487 32.6219 9.01286ZM25.5824 11.9901C26.1378 10.9547 27.0253 10.4585 27.8866 10.4391C29.6341 10.4349 30.7766 11.4287 31.088 12.8064C31.2768 13.6367 31.1928 14.4433 30.789 15.1974C30.3135 16.083 29.5721 16.5986 28.5743 16.7137C27.6096 16.8259 26.7676 16.5501 26.0799 15.8488C25.6389 15.3997 25.3729 14.8522 25.2599 14.2341C25.1166 13.4509 25.2048 12.6928 25.5824 11.9901Z" fill="#010101"/>
<rect x="49" width="39" height="26" fill="white"/>
<path d="M73.538 7.27075C75.1683 7.27075 76.7987 7.27075 78.4304 7.27075C78.6192 7.27075 78.5985 7.24857 78.5985 7.44123C78.5985 8.36017 78.5985 9.27912 78.5985 10.1994C78.5985 10.2133 78.5985 10.2272 78.5985 10.241C78.5971 10.3755 78.5971 10.3755 78.4621 10.3755C77.4188 10.3755 76.377 10.3755 75.3337 10.3755C75.1477 10.3755 75.1697 10.3602 75.1697 10.5363C75.1697 13.4275 75.1697 16.3202 75.1697 19.2115C75.1697 19.3916 75.1697 19.3916 74.9864 19.3916C74.0176 19.3916 73.0488 19.3916 72.0785 19.3916C72.0648 19.3916 72.051 19.3916 72.0372 19.3916C71.8704 19.3916 71.8897 19.4027 71.8897 19.2433C71.8897 16.3521 71.8897 13.4594 71.8897 10.5681C71.8897 10.3741 71.8897 10.3741 71.6913 10.3741C70.6673 10.3741 69.6434 10.3741 68.618 10.3741C68.4568 10.3741 68.4678 10.3893 68.4678 10.2272C68.4678 9.28882 68.4678 8.35186 68.4678 7.41351C68.4678 7.38995 68.4692 7.36777 68.4678 7.34421C68.4637 7.29293 68.483 7.26659 68.5381 7.26936C68.5753 7.27075 68.6112 7.26936 68.6484 7.26936C70.2773 7.27075 71.9077 7.27075 73.538 7.27075Z" fill="#010101"/>
<path d="M62.0941 13.3232C62.0941 11.3605 62.0941 9.39652 62.0941 7.4339C62.0941 7.24817 62.072 7.27034 62.2525 7.27034C63.2393 7.26896 64.2274 7.27034 65.2142 7.27034C65.2376 7.27034 65.261 7.27312 65.2831 7.27034C65.3575 7.26203 65.3809 7.29806 65.374 7.36737C65.3713 7.39509 65.374 7.42281 65.374 7.45053C65.374 11.3716 65.374 15.2941 65.374 19.2152C65.374 19.4148 65.403 19.3926 65.2004 19.3926C64.2219 19.394 63.2434 19.3926 62.2663 19.3926C62.2388 19.3926 62.2112 19.3898 62.1836 19.3926C62.1065 19.4037 62.0885 19.3635 62.0941 19.2956C62.0968 19.2596 62.0941 19.2221 62.0941 19.1847C62.0941 17.2304 62.0941 15.2761 62.0941 13.3232Z" fill="#010101"/>
</g>
</svg>
